<?xml version="1.0" ?>
<svg
  enable-background="new 0 0 128 128"
  id="Слой_1"
  version="1.1"
  viewBox="0 0 128 128"
  xml:space="preserve"
  xmlns="http://www.w3.org/2000/svg"
  xmlns:xlink="http://www.w3.org/1999/xlink"
>
  <path
    d="M13.6,107.4L3.3,47.7C1.4,37.2,8.2,27.2,18.5,24.8l82-18.6c13.4-3,25.8,8.1,24.3,21.7l-8.8,78.3  c-1.1,10.1-9.7,17.8-19.9,17.8H33.3C23.6,124,15.3,117,13.6,107.4z"
    fill="#F7F4CD"
    stroke="#62345B"
    stroke-miterlimit="15"
  />
  <g>
    <g>
      <path
        d="M88.5,36.3V30h-30v6.3c-5.5,0-10,4.5-10,10V119c0,2.8,2.2,5,5,5h40c2.8,0,5-2.2,5-5V46.3    C98.5,40.8,94,36.3,88.5,36.3z"
        fill="#F1657C"
      />
    </g>
    <g opacity="0.7">
      <path
        d="M88.5,71.5c-1.4,0-2.5-1.1-2.5-2.5V45.3c0-1.4,1.1-2.5,2.5-2.5S91,44,91,45.3V69    C91,70.4,89.8,71.5,88.5,71.5z"
        fill="#FFFFFF"
      />
    </g>
    <g opacity="0.7">
      <path
        d="M88.5,88.5c-1.4,0-2.5-1.1-2.5-2.5v-2.7c0-1.4,1.1-2.5,2.5-2.5S91,82,91,83.3V86    C91,87.4,89.8,88.5,88.5,88.5z"
        fill="#FFFFFF"
      />
    </g>
    <g>
      <path
        d="M48.5,101.6h15c2.8,0,5-2.2,5-5V63.7c0-2.8-2.2-5-5-5h-15"
        fill="#FFFFFF"
      />
    </g>
    <g opacity="0.15">
      <g>
        <path
          d="M68.5,36.3V30h-10v6.3c-5.5,0-10,4.5-10,10V119c0,2.8,2.2,5,5,5h5V46.3C58.5,40.8,62.9,36.3,68.5,36.3z"
          fill="#62345B"
        />
      </g>
    </g>
    <g>
      <path
        d="M93.5,125.5h-40c-3.6,0-6.5-2.9-6.5-6.5V46.3c0-6.3,5.2-11.5,11.5-11.5h30c6.3,0,11.5,5.2,11.5,11.5V119    C100,122.6,97,125.5,93.5,125.5z M58.5,37.8c-4.7,0-8.5,3.8-8.5,8.5V119c0,1.9,1.6,3.5,3.5,3.5h40c1.9,0,3.5-1.6,3.5-3.5V46.3    c0-4.7-3.8-8.5-8.5-8.5H58.5z"
        fill="#62345B"
      />
    </g>
    <g>
      <path
        d="M88.5,37.8c-0.8,0-1.5-0.7-1.5-1.5v-4.8H60v4.8c0,0.8-0.7,1.5-1.5,1.5S57,37.2,57,36.3V30    c0-0.8,0.7-1.5,1.5-1.5h30c0.8,0,1.5,0.7,1.5,1.5v6.3C90,37.2,89.3,37.8,88.5,37.8z"
        fill="#62345B"
      />
    </g>
    <g>
      <path
        d="M63,15.5h-9.5c-0.8,0-1.5-0.7-1.5-1.5s0.7-1.5,1.5-1.5H63c0.8,0,1.5,0.7,1.5,1.5S63.8,15.5,63,15.5z"
        fill="#62345B"
      />
    </g>
    <g>
      <path
        d="M13.5,4l35.6,4.5c2.5,0.3,4.4,2.4,4.4,5v1.2c0,2.5-1.9,4.6-4.4,5L13.5,24V4z"
        fill="#B09AAC"
      />
    </g>
    <g opacity="0.15">
      <g>
        <path
          d="M49.1,14.5L13.5,19v5l35.6-4.5c2.5-0.3,4.4-2.4,4.4-5v-1.2c0-0.7-0.1-1.3-0.4-1.9     C52.4,13.1,50.9,14.3,49.1,14.5z"
          fill="#62345B"
        />
      </g>
    </g>
    <g>
      <path
        d="M13.5,25.5c-0.4,0-0.7-0.1-1-0.4C12.2,24.8,12,24.4,12,24V4c0-0.4,0.2-0.8,0.5-1.1s0.8-0.4,1.2-0.4L49.3,7    c3.2,0.4,5.7,3.2,5.7,6.5v1.2c0,3.3-2.4,6-5.7,6.4l-35.6,4.5C13.7,25.5,13.6,25.5,13.5,25.5z M15,5.7v16.6l33.9-4.2    c1.7-0.2,3.1-1.7,3.1-3.5v-1.2c0-1.8-1.3-3.3-3.1-3.5L15,5.7z"
        fill="#62345B"
      />
    </g>
    <g>
      <path
        d="M108.5,26.2c-0.4,0-0.8-0.1-1.1-0.4l-7.1-7.1c-1.6-1.6-3.7-2.5-6-2.5H83.5c-0.8,0-1.5-0.7-1.5-1.5    s0.7-1.5,1.5-1.5h10.9c3.1,0,6,1.2,8.1,3.4l7.1,7.1c0.6,0.6,0.6,1.5,0,2.1C109.2,26,108.8,26.2,108.5,26.2z"
        fill="#62345B"
      />
    </g>
    <g>
      <circle cx="73.5" cy="14" fill="#D6EEF6" r="10" />
    </g>
    <g>
      <path
        d="M73.5,25.5C67.1,25.5,62,20.3,62,14c0-6.3,5.2-11.5,11.5-11.5S85,7.7,85,14C85,20.3,79.8,25.5,73.5,25.5z     M73.5,5.5C68.8,5.5,65,9.3,65,14s3.8,8.5,8.5,8.5S82,18.7,82,14S78.2,5.5,73.5,5.5z"
        fill="#62345B"
      />
    </g>
    <g>
      <path
        d="M63.5,103.1h-15c-0.8,0-1.5-0.7-1.5-1.5s0.7-1.5,1.5-1.5h15c1.9,0,3.5-1.6,3.5-3.5V63.7    c0-1.9-1.6-3.5-3.5-3.5h-15c-0.8,0-1.5-0.7-1.5-1.5s0.7-1.5,1.5-1.5h15c3.6,0,6.5,2.9,6.5,6.5v32.8    C70,100.2,67.1,103.1,63.5,103.1z"
        fill="#62345B"
      />
    </g>
  </g>
</svg>